<?xml version="1.0" encoding="utf-8"?>
<!-- Generator: Adobe Illustrator 18.1.1, SVG Export Plug-In . SVG Version: 6.00 Build 0)  -->
<svg version="1.1" id="Layer_1" xmlns="http://www.w3.org/2000/svg" xmlns:xlink="http://www.w3.org/1999/xlink" x="0px" y="0px"
	 viewBox="-383 295 24 24" enable-background="new -383 295 24 24" xml:space="preserve">
<g>
	<path d="M-371,295c-6.6,0-12,5.4-12,12s5.4,12,12,12s12-5.4,12-12S-364.4,295-371,295z M-370.9,315.1c-0.8,0-1.6-0.1-2.4-0.4
		c-1.9-0.6-3.5-1.8-4.4-3.5c-0.1-0.2-0.2-0.4-0.3-0.6c0-0.1-0.1-0.1-0.1-0.1v0c0-0.1-0.1-0.2-0.1-0.3c0,0,0,0,0,0c0,0,0-0.1-0.1-0.1
		c-0.1-0.2-0.2-0.5-0.2-0.7c0-0.2-0.1-0.3-0.1-0.5c0,0,0,0,0,0c0-0.1,0-0.3-0.1-0.4c0-0.2,0-0.4,0-0.7c0-0.1,0-0.2,0-0.3
		c0-0.3,0-0.5,0-0.8c0,0,0,0,0,0c0-0.2,0.1-0.5,0.1-0.7c0,0,0-0.1,0-0.1c0-0.2,0.1-0.4,0.1-0.6c0,0,0-0.1,0-0.1
		c0.1-0.2,0.1-0.4,0.2-0.5c0,0,0-0.1,0.1-0.1c0.1-0.2,0.1-0.3,0.2-0.5c0,0,0-0.1,0.1-0.1c0.1-0.1,0.2-0.3,0.2-0.4c0,0,0,0,0,0
		c0.2-0.3,0.4-0.6,0.6-0.9c0,0,0,0,0,0c0,0,0,0,0,0c0.2-0.2,0.3-0.4,0.5-0.5c0.1,0,0.1-0.1,0.1-0.1c0.1-0.1,0.3-0.3,0.4-0.4
		c0.1,0,0.1-0.1,0.2-0.1c0.1-0.1,0.2-0.1,0.3-0.2c0,0,0.1-0.1,0.1-0.1c0.1-0.1,0.2-0.2,0.3-0.2c0,0,0,0,0,0c0,0,0,0,0,0
		c0.1-0.1,0.2-0.1,0.3-0.2c0.8-0.4,1.3-0.6,2.2-1.3c0,0,0.1-0.1,0.1-0.1c0.3-0.2,0.5-0.5,0.6-1c0,0,0,0,0,0c0-0.1,0.1-0.2,0.1-0.4
		c0,0,0,0,0,0c0-0.1,0.1-0.3,0.1-0.5c0,0,0,0,0,0c0,0,0,0,0,0c0.6,0.7,1.4,1.6,1.9,2c0,0,0.1,0.1,0.1,0.1c0.6,0.4,1.1,0.6,1.7,0.9
		c0,0,0.1,0,0.1,0c0.2,0.1,0.4,0.2,0.6,0.4c0,0,0,0,0,0c0.1,0,0.2,0.1,0.3,0.2c0,0,0,0,0,0c0,0,0,0,0,0c0.1,0,0.2,0.1,0.2,0.2
		c0.2,0.2,0.5,0.4,0.8,0.6c0,0,0,0,0,0c0.1,0.1,0.2,0.2,0.3,0.3c0.1,0.1,0.2,0.2,0.3,0.3c0.2,0.2,0.4,0.4,0.5,0.7
		c0.8,1.1,1.5,2.6,1.5,4.7C-363.2,312.1-366.8,315.1-370.9,315.1z"/>
	<path d="M-371.7,300.1c0-0.2-0.2-0.2-0.2-0.3c0,0,0-0.1,0.2-0.2c0.3-0.2,0.4-0.6,0.4-0.8c0-0.2,0-0.5-0.2-1.2c0,0,0,0,0-0.1
		c0,0,0,0.1,0,0.1c-0.2,1-0.5,1.4-0.9,1.7c-0.1,0-0.1,0.1-0.2,0.1c-0.5,0.4-0.9,0.6-1.3,0.8c0,0,0,0,0,0c0,0-0.1,0-0.1,0.1
		c-0.1,0.1-0.3,0.1-0.4,0.2c-0.3,0.2-0.9,0.5-1.4,0.9c0,0-0.1,0.1-0.1,0.1c-0.1,0.1-0.2,0.2-0.3,0.2c-0.2,0.2-0.4,0.4-0.6,0.6
		c-0.2,0.3-0.4,0.6-0.6,0.9c-0.1,0.3-0.1,0.4-0.1,0.6c0.1,0.2,0.6,0.3,1.6-0.2c1-0.5,2.3-1.3,3.2-2.2
		C-371.8,300.7-371.7,300.3-371.7,300.1z"/>
	<path d="M-369.6,312.2c0.3-0.2,0.5-0.4,1.1-0.4c0.6,0,0.7,0.2,0.8,0.4c0.1,0.2,0.1,0.3,0.3,0.2c0.1-0.1,0.2-0.2,0.1-0.3
		c-0.1-0.2-0.2-0.5-0.4-0.6c-0.2-0.1-0.5-0.2-0.8-0.2c-0.3,0-0.4,0-0.7,0.1c-0.3,0.1-0.6,0.4-0.8,0.6c-0.2,0.2-0.2,0.3-0.1,0.4
		C-370,312.5-369.9,312.5-369.6,312.2z"/>
	<path d="M-367.2,313.2c-0.3,0.3-1.1,0.6-2.2,0.6s-1.6-0.2-2-0.5c-0.1,0,0,0-0.1,0s-0.2,0.1-0.3,0.1c-0.1,0.1-0.1,0.2,0,0.4
		c0.8,0.7,2,0.6,2.9,0.5c0.9-0.1,1.7-0.6,1.8-0.7c0.1-0.1,0.1-0.2,0.1-0.3C-367,313.2-367,313.1-367.2,313.2z"/>
	<path d="M-368.2,309.5c-1,0-2.4-2-4.4-2c-1.6,0-2.8,1.3-2.8,2.6c0,0.8,0.2,1.3,0.8,1.7c0.3,0.2,0.7,0.4,1.7,0.4
		c1.7,0,3.9-2.1,4.9-2.1c0.8,0,2,2,2.6,2c0.5,0,0.7-0.2,1.2-0.8c0.4-0.6,0.6-1.6,0.6-2.1s-0.2-1.4-1.1-1.4
		C-365.6,307.8-367.3,309.5-368.2,309.5z"/>
</g>
</svg>
