<?xml version="1.0" encoding="utf-8"?>
<!-- Generator: Adobe Illustrator 18.0.0, SVG Export Plug-In . SVG Version: 6.00 Build 0)  -->
<!DOCTYPE svg PUBLIC "-//W3C//DTD SVG 1.1//EN" "http://www.w3.org/Graphics/SVG/1.1/DTD/svg11.dtd">
<svg version="1.1" id="Layer_1" xmlns="http://www.w3.org/2000/svg" xmlns:xlink="http://www.w3.org/1999/xlink" x="0px" y="0px"
	 viewBox="0 0 512 512" enable-background="new 0 0 512 512" xml:space="preserve">
<g>
	<g>
		<path d="M278.8,348.3c4.8-4,8-7.4,17.9-7.4c10,0,11.7,3.7,13.7,7.4c2,3.7,2.3,4.3,4.3,3.1c2.3-1.1,3.4-2.8,2.3-5.7
			c-1.1-2.8-3.1-8-6.5-10.2c-3.4-2.3-8.3-2.6-12.8-2.6s-7.1-0.3-12,1.7c-4.8,2-10,6.5-13.1,9.4c-3.1,2.8-3.7,5.1-2,7.4
			C272.3,353.7,274,352.3,278.8,348.3z M319.5,364.2c-5.7,4.3-18.5,9.4-36.7,9.4c-18.2,0-26.8-3.7-32.4-8.3
			c-0.9-0.6-0.6-0.6-2.3-0.6c-1.7,0-2.8,0.9-4.3,2c-1.4,1.1-2,4,0,6c12.5,11.4,33.3,10.5,48.7,9.1c15.4-1.4,28.5-10.5,29.9-12
			c2-2,1.4-3.7,1.1-4.8C323.2,363.9,322.1,362.2,319.5,364.2z M230.5,270.3c-26.2,0.3-47,21.1-47.2,43.3c-0.3,12.5,4,21.6,12.5,27.6
			c5.7,3.7,10.8,6.3,27.9,6.3c28.2,0,64-35,80.5-34.4c13.1,0.6,33.6,32.4,43.8,33.3c8,0.6,12.2-3.1,19.1-13.1
			c6.8-10,9.7-25.9,9.7-34.7s-4-23.6-18.2-23.6c-13.4,0-40.7,27.9-54.9,28.2C286.8,303.3,263.8,270,230.5,270.3z M256.4,50
			c-113.8,0-206,92.2-206,206s92.2,206,206,206s206-92.2,206-206S370.2,50,256.4,50z M257.6,396.7c-68.6,0-130.3-54.1-130.3-127.5
			c0-73.4,57.2-107.6,67.7-113c12.5-6.8,21.6-10.2,36.1-21.6c6.8-5.7,12.8-13.7,14.8-33.3c10.2,12.2,22.5,26.5,31.3,32.4
			c14.2,9.4,28.5,13.1,43.5,22.5c9.1,5.7,64.9,39.8,64.9,115.3S326.1,396.7,257.6,396.7z"/>
	</g>
</g>
</svg>
