<?xml version="1.0" encoding="utf-8"?>


<!-- The icon can be used freely in both personal and commercial projects with no attribution required, but always appreciated. 
You may NOT sub-license, resell, rent, redistribute or otherwise transfer the icon without express written permission from iconmonstr.com -->


<!DOCTYPE svg PUBLIC "-//W3C//DTD SVG 1.1//EN" "http://www.w3.org/Graphics/SVG/1.1/DTD/svg11.dtd">

<svg version="1.1" xmlns="http://www.w3.org/2000/svg" xmlns:xlink="http://www.w3.org/1999/xlink" x="0px" y="0px"

	 width="512px" height="512px" viewBox="0 0 512 512" enable-background="new 0 0 512 512" xml:space="preserve">

<path id="500px-circle-icon" d="M235.426,256.949c-12.587,14.693-31.091,30.73-50.46,30.73

	c-19.127,0-29.973-13.271-29.973-31.111c0-15.604,10.176-32.628,28.834-32.628C202.818,223.94,222.408,242.857,235.426,256.949z

	 M331.034,223.94c-19.856,0-36.571,18.389-50.081,33.009c13.423,15.498,30.687,30.73,51.22,30.73

	c19.03,0,29.214-14.145,29.214-31.491C361.387,239.043,350.326,223.94,331.034,223.94z M462,256c0,113.771-92.229,206-206,206

	S50,369.771,50,256S142.229,50,256,50S462,142.229,462,256z M397.05,255.051c0-39.529-25.309-69.05-65.257-69.05

	c-33.106,0-53.868,21.625-73.604,45.528C237.363,206.556,216.603,186,183.827,186c-37.865,0-64.877,27.468-64.877,69.81

	c0,42.74,28.465,70.19,66.394,70.19c34.059,0,52.151-21.186,72.846-42.873C278.3,306.439,300.768,326,331.413,326

	C372.197,326,397.05,294.725,397.05,255.051z"/>

</svg>

