<?xml version="1.0" encoding="utf-8"?>


<!-- The icon can be used freely in both personal and commercial projects with no attribution required, but always appreciated. 
You may NOT sub-license, resell, rent, redistribute or otherwise transfer the icon without express written permission from iconmonstr.com -->


<!DOCTYPE svg PUBLIC "-//W3C//DTD SVG 1.1//EN" "http://www.w3.org/Graphics/SVG/1.1/DTD/svg11.dtd">

<svg version="1.1" xmlns="http://www.w3.org/2000/svg" xmlns:xlink="http://www.w3.org/1999/xlink" x="0px" y="0px"

	 width="512px" height="512px" viewBox="0 0 512 512" enable-background="new 0 0 512 512" xml:space="preserve">

<path id="linkedin-circle-icon" d="M256.417,50c-113.771,0-206,92.229-206,206s92.229,206,206,206s206-92.229,206-206

	S370.188,50,256.417,50z M201.456,355.592h-45.229V209.469h45.229V355.592z M178.626,190.333c-14.771,0-26.746-12.072-26.746-26.963

	s11.975-26.963,26.746-26.963c14.77,0,26.745,12.072,26.745,26.963S193.396,190.333,178.626,190.333z M370.953,355.592h-45.01

	c0,0,0-55.666,0-76.703s-7.991-32.781-24.626-32.781c-18.103,0-27.562,12.231-27.562,32.781c0,22.504,0,76.703,0,76.703h-43.38

	V209.469h43.38v19.679c0,0,13.047-24.137,44.032-24.137c30.986,0,53.165,18.918,53.165,58.058

	C370.953,302.209,370.953,355.592,370.953,355.592z"/>

</svg>

