<?xml version="1.0" encoding="utf-8"?>
<!-- Generator: Adobe Illustrator 15.0.1, SVG Export Plug-In . SVG Version: 6.00 Build 0)  -->
<!DOCTYPE svg PUBLIC "-//W3C//DTD SVG 1.1//EN" "http://www.w3.org/Graphics/SVG/1.1/DTD/svg11.dtd">
<svg version="1.1" id="Layer_1" xmlns="http://www.w3.org/2000/svg" xmlns:xlink="http://www.w3.org/1999/xlink" x="0px" y="0px"
	 width="91.924px" height="72px" viewBox="0 0 91.924 72" enable-background="new 0 0 91.924 72" xml:space="preserve">
<g>
	<g>
		<g>
			<path fill="#FFFFFF" d="M52.551,37.514c0.207-1.701,0.486-3.402,0.847-5.104c0.107-0.518-0.027-1.086-0.408-1.509
				c-0.639-0.701-1.725-0.753-2.424-0.117l-0.334,0.305h-0.002c-1.212,1.611-2.104,3.358-2.967,5.069
				c-0.835,1.731-1.517,3.502-2.092,5.297c-0.883,2.809-1.473,5.628-2.09,8.479c-0.205-0.964-0.292-1.991-0.313-2.998
				c-0.04-1.843,0.055-3.71,0.233-5.569c0.238-1.86,0.535-3.714,0.852-5.572c0.289-1.876,0.688-3.692,1.024-5.68
				c0.1-0.597-0.128-1.233-0.649-1.622c-0.74-0.553-1.79-0.401-2.34,0.343l-0.185,0.247l-0.002,0.001
				c-0.543,1.117-0.874,2.187-1.167,3.259c-0.317,1.054-0.595,2.094-0.835,3.144c-0.493,2.083-0.996,4.135-1.414,6.206
				c-0.494,2.053-0.998,4.095-1.619,6.096c-0.296,1.005-0.598,2.003-0.935,2.971c-0.126,0.362-0.268,0.702-0.412,1.04
				c-0.567-1.614-0.569-3.645-0.45-5.539c0.119-2.376,0.693-4.729,1.177-7.092c0.503-2.37,1.051-4.733,1.35-7.229
				c0.071-0.626,0.127-1.26,0.121-1.933c0.007-0.307-0.027-0.725-0.064-1.066c-0.047-0.246-0.065-0.721-0.41-1.249
				c-0.166-0.262-0.466-0.542-0.834-0.689c-0.358-0.132-0.73-0.141-0.988-0.092c-0.546,0.101-0.891,0.306-1.215,0.501
				c-0.633,0.396-1.096,0.862-1.541,1.33c-1.729,1.901-3.084,3.946-4.349,6.058c-0.03,0.045-0.056,0.095-0.086,0.147
				c-0.299-2.149-0.552-4.251-0.4-6.338c0.107-1.477,0.334-2.947,0.787-4.374c0.002-0.006,0.007-0.019,0.01-0.022
				c1.073-1.098,2.061-2.3,2.871-3.682c0.354-0.603,0.228-1.386-0.326-1.841c-0.614-0.505-1.521-0.417-2.026,0.198l-0.044,0.054
				h-0.003c-1.23,1.539-2.179,3.32-2.852,5.191c-0.333,0.313-0.667,0.628-1.018,0.921c-1.834,1.548-3.869,2.862-6.002,3.986
				c-0.288,0.149-0.591,0.267-0.882,0.413c-0.103-3.313-0.286-6.625-0.532-9.929c-0.323-4.43-0.834-8.852-1.398-13.241
				c-0.066-0.501-0.513-0.879-1.027-0.846c-0.533,0.037-0.937,0.498-0.901,1.031l0.852,13.222c0.215,3.652,0.331,7.304,0.419,10.952
				c-3.285,1.341-6.74,2.266-10.268,2.691C5.03,33.363,4.839,33.6,4.862,33.86c0.025,0.27,0.262,0.466,0.531,0.441h0.026
				c3.458-0.309,6.882-1.107,10.176-2.295c0.006,0.292,0.019,0.587,0.024,0.886c0.08,4.393-0.022,8.79-0.291,13.166
				c-0.224,4.427-0.4,8.716-1.195,13.043c-0.039,0.221,0.075,0.45,0.289,0.543c0.249,0.109,0.539-0.007,0.647-0.26
				c1.85-4.148,2.413-8.762,2.782-13.148c0.345-4.457,0.441-8.923,0.396-13.378c-0.002-0.635-0.044-1.269-0.057-1.903
				c0.501-0.221,1.013-0.41,1.505-0.65c1.964-0.96,3.843-2.113,5.623-3.435c-0.087,0.473-0.2,0.946-0.244,1.422
				c-0.351,3.363,0.084,6.61,0.481,9.735c0.044,0.341,0.082,0.686,0.126,1.03c-0.378,0.724-0.765,1.449-1.108,2.192
				c-1.032,2.23-1.914,4.543-2.51,6.969c-0.553,2.416-1.014,4.982-0.376,7.648c0.04,0.17,0.125,0.33,0.255,0.462
				c0.381,0.387,1.005,0.396,1.392,0.016l0.032-0.033c3.058-1.654,5.099-5.174,5.496-8.672c0.458-3.504-0.037-6.806-0.455-9.927
				c-0.051-0.412-0.111-0.816-0.168-1.222c1.443-2.48,3.093-4.836,5.091-6.864c0.427-0.406,0.877-0.802,1.362-1.092
				c0.479-0.299,1.043-0.465,1.209-0.102c0.374,0.934,0.208,2.23,0.079,3.375c-0.326,2.362-0.908,4.712-1.438,7.078
				c-0.544,2.368-1.042,4.752-1.453,7.213c-0.188,1.232-0.331,2.492-0.304,3.811c0.008,1.313,0.237,2.718,1.012,4.109
				c0.026,0.045,0.06,0.095,0.095,0.133c0.135,0.164,0.292,0.334,0.623,0.506c0.344,0.187,0.88,0.215,1.223,0.079
				c0.666-0.268,0.803-0.568,0.954-0.738c0.276-0.395,0.389-0.679,0.514-0.969c0.231-0.568,0.396-1.097,0.55-1.624
				c0.305-1.054,0.559-2.083,0.804-3.119l1.289-6.184c0.464-2.041,0.949-4.074,1.523-6.074c0.155-0.524,0.314-1.057,0.484-1.582
				c-0.062,0.374-0.134,0.742-0.188,1.115c-0.301,1.874-0.489,3.771-0.669,5.678c-0.107,1.913-0.178,3.845-0.028,5.792
				c0.184,1.938,0.465,3.964,1.668,5.799l0,0c0.106,0.191,0.299,0.334,0.532,0.362c0.385,0.05,0.738-0.224,0.788-0.61l0.004-0.035
				c0.45-3.555,1.442-7.117,2.747-10.491c1.045-2.654,2.339-5.224,3.99-7.51c-0.241,2.678-0.459,5.367-0.519,8.095
				c-0.095,3.501,0.151,7.033,0.593,10.497c0.003,0.009,0.003,0.022,0.006,0.029c0.082,0.508,0.561,0.857,1.069,0.772
				c0.508-0.081,0.853-0.562,0.774-1.069l-0.007-0.029c-0.276-1.692-0.485-3.395-0.546-5.108c-0.085-1.704-0.095-3.41-0.038-5.109
				C52.094,40.917,52.341,39.216,52.551,37.514z M25.938,47.174c-0.209,1.47-0.546,2.918-1.18,4.271
				c-0.486,1.04-1.128,2.014-1.828,2.959c-0.302-1.917-0.092-3.954,0.336-5.902c0.522-2.327,1.333-4.602,2.298-6.807
				c0.104-0.23,0.226-0.46,0.333-0.692C26.112,43.098,26.218,45.166,25.938,47.174z M34.883,52.656
				C34.865,52.684,34.853,52.681,34.883,52.656L34.883,52.656z"/>
			<path fill="#FFFFFF" d="M86.189,51.66c-1.86-2.641-2.75-5.856-3.191-9.2c-0.225-1.673-0.329-3.371-0.401-5.107
				c-0.04-0.873-0.063-1.735-0.154-2.681c-0.025-0.237-0.06-0.487-0.114-0.763c-0.103-0.287-0.058-0.619-0.613-1.196l-0.124-0.107
				c-0.096-0.071-0.237-0.16-0.364-0.228c-0.257-0.122-0.474-0.177-0.703-0.193c-0.472-0.046-0.833,0.076-1.151,0.201
				c-1.168,0.57-1.729,1.348-2.321,2.099c-0.565,0.759-1.025,1.549-1.45,2.354c-0.839,1.604-1.512,3.256-2.102,4.93
				c-0.489,1.394-0.911,2.806-1.297,4.223c0.07-1.687,0.182-3.376,0.318-5.093c0.347-3.734,0.944-7.493,1.47-11.274
				c0.159-1.152,0.278-2.318,0.413-3.479c0.112-0.182,0.247-0.354,0.354-0.542c1.728-2.984,2.846-6.312,3.188-9.792
				c0.119-1.739,0.031-3.534-0.465-5.292c-0.523-1.742-1.48-3.43-2.852-4.799l-0.034-0.026c-0.255-0.201-0.592-0.302-0.938-0.241
				C73,5.561,72.555,6.182,72.663,6.838c0.599,3.662,0.816,7.427,0.624,11.196c-0.157,3.103-0.523,6.202-0.932,9.306
				c-1.511,1.862-3.311,3.46-5.365,4.359c-0.045,0.018-0.091,0.029-0.136,0.046c0.085-0.719,0.168-1.432,0.248-2.152
				c0.42-3.989,0.821-7.998,1.015-12.052c0.129-4.013,0.412-8.269-1.295-12.186c-0.129-0.283-0.419-0.492-0.752-0.495
				c-0.454,0-0.825,0.365-0.828,0.819c-0.058,3.943,0.207,7.773,0.058,11.749c-0.132,3.954-0.474,7.925-0.835,11.908
				c-0.078,0.952-0.152,1.908-0.231,2.863c-0.469-0.039-0.929-0.121-1.35-0.313c-1.219-0.511-2.174-1.617-2.909-2.904h-0.002
				l-0.247-0.285c-0.299-0.336-0.74-0.539-1.225-0.514c-0.844,0.044-1.495,0.76-1.453,1.605c0.096,1.937,0.075,3.893-0.007,5.857
				l-0.279,5.916c-0.129,1.982-0.137,3.976-0.143,5.979c0.014,1.998,0.067,4.013,0.183,6.031v0.019
				c0.005,0.067,0.015,0.129,0.03,0.196c0.146,0.602,0.752,0.972,1.353,0.822c0.601-0.145,0.971-0.749,0.825-1.351
				c-0.46-1.893-0.775-3.823-0.917-5.775c-0.167-1.945-0.129-3.906-0.082-5.865c0.112-1.957,0.276-3.91,0.506-5.856
				c0.164-1.421,0.384-2.843,0.598-4.265c0.883,0.92,1.936,1.704,3.202,2.075c0.59,0.181,1.188,0.231,1.787,0.234
				c-0.199,2.508-0.384,5.026-0.501,7.557c-0.098,2.02-0.098,4.052,0.004,6.102c0.128,2.038,0.319,4.119,1.127,6.148
				c0.14,0.351,0.521,0.547,0.89,0.443c0.396-0.108,0.631-0.518,0.521-0.916l-0.013-0.041c-0.991-3.599-0.595-7.683-0.313-11.598
				c0.222-2.71,0.535-5.43,0.852-8.153c0.315-0.111,0.631-0.225,0.925-0.373c1.586-0.792,2.93-1.94,4.094-3.214
				c0.154-0.163,0.279-0.345,0.426-0.513c-0.004,0.029-0.007,0.058-0.01,0.088c-0.521,3.768-1.109,7.543-1.458,11.368
				c-0.292,3.838-0.54,7.633-0.224,11.69c0.031,0.374,0.266,0.717,0.638,0.872c0.526,0.219,1.132-0.032,1.349-0.559l0.143-0.346
				v-0.005c0.75-3.359,1.667-6.685,2.876-9.871c0.608-1.586,1.294-3.144,2.1-4.594c0.406-0.718,0.84-1.417,1.321-2.033
				c0.366-0.48,0.822-0.938,1.176-1.176c0.008,0.069,0.018,0.126,0.022,0.201c0.058,0.78,0.061,1.664,0.075,2.531
				c0.027,1.753,0.085,3.543,0.278,5.339c0.364,3.556,1.267,7.313,3.355,10.473l0.048,0.071c0.007,0.011,0.013,0.021,0.02,0.03
				c0.461,0.655,1.364,0.811,2.02,0.352C86.494,53.217,86.652,52.313,86.189,51.66z M77.207,15.775
				c-0.163,2.856-1.169,5.582-2.534,8.065c0.182-1.892,0.319-3.785,0.4-5.689c0.136-3.454-0.057-6.93-0.563-10.349
				C76.582,9.767,77.486,12.877,77.207,15.775z"/>
			<path fill="#FFFFFF" d="M58.408,22.506c0.302,0.142,0.65,0.096,0.855,0.011c0.783-0.372,0.885-0.801,1.112-1.181
				c0.685-1.541,0.655-3.292-0.136-4.737l-0.045-0.077c-0.004-0.002-0.005-0.006-0.007-0.009c-0.22-0.387-0.711-0.515-1.095-0.294
				c-0.384,0.218-0.518,0.709-0.296,1.093c0.57,0.997,0.697,2.327,0.278,3.418c-0.055,0.167-0.151,0.317-0.227,0.42
				c-0.018-0.043-0.039-0.064-0.05-0.12c-0.138-0.582-0.129-1.258-0.087-1.95c0.013-0.181-0.103-0.355-0.285-0.415
				c-0.214-0.064-0.442,0.06-0.51,0.273l-0.013,0.038c-0.2,0.655-0.354,1.402-0.276,2.252c0.021,0.215,0.066,0.469,0.233,0.778
				C57.955,22.168,58.111,22.375,58.408,22.506z M58.932,21.336c-0.002,0-0.005-0.012-0.005-0.015
				C58.95,21.337,58.964,21.349,58.932,21.336z"/>
		</g>
	</g>
	<path fill="#FFFFFF" d="M14.572,66.048c2.379-2.329,5.479-3.479,8.449-4.247c3.018-0.727,6.059-1.141,9.082-1.545
		c6.054-0.771,12.1-1.219,18.146-1.531c6.049-0.233,12.094-0.269,18.134-0.21c3.021,0.005,6.04,0.187,9.058,0.333
		c3.044,0.203,5.974,0.277,9.117,0.794c0.329,0.053,0.551,0.365,0.498,0.694c-0.053,0.324-0.354,0.545-0.678,0.501l-0.119-0.018
		c-1.222-0.164-2.882-0.178-4.326-0.212l-4.497-0.031c-3.001,0.008-6.005,0.06-9.006,0.139c-6.003,0.163-12.005,0.443-17.994,0.87
		c-5.982,0.435-11.959,1.003-17.873,1.879c-2.957,0.435-5.891,0.977-8.781,1.627c-2.894,0.645-5.731,1.448-8.331,2.678
		c-0.474,0.224-1.039,0.021-1.263-0.453c-0.178-0.373-0.088-0.805,0.193-1.083L14.572,66.048z"/>
</g>
</svg>
